<svg width="1096" height="496" viewBox="0 0 1096 496" fill="none" xmlns="http://www.w3.org/2000/svg">
<path d="M120.295 99.5171C82.6794 170.602 45.0277 245.181 8.6558 327.702C-14.4584 380.144 13.6441 440.286 67.9875 458.484L162.358 490.087C175.96 494.642 190.383 496.218 204.647 494.707L646.601 447.89C652.19 447.298 657.82 447.178 663.429 447.532L989.286 468.081C1048.13 471.792 1097.39 424.052 1095.53 365.123L1091.4 234.445C1089.24 166.002 1042.61 71.0666 977.378 50.2245C866.806 14.8942 707.49 -21.2684 623.268 17.5228C580.704 37.127 537.764 72.3978 491.045 68.7396L215.906 47.1957C176.448 44.106 138.806 64.5341 120.295 99.5171Z" fill="#247BFF" fill-opacity="0.04"/>
</svg>
